<mxfile host="app.diagrams.net" modified="2021-06-21T03:40:42.414Z" agent="5.0 (Windows NT 10.0; Win64; x64) AppleWebKit/537.36 (KHTML, like Gecko) Chrome/90.0.4430.212 Safari/537.36 OPR/76.0.4017.177" etag="0U-LvnB1Fvo_q30lmfMz" version="14.8.0" type="github" pages="2">
  <diagram id="vQHucJHa2scrvkwMp-Zf" name="Page-1">
    <mxGraphModel dx="2533" dy="2093" grid="1" gridSize="10" guides="1" tooltips="1" connect="1" arrows="1" fold="1" page="1" pageScale="1" pageWidth="827" pageHeight="1169" math="0" shadow="0">
      <root>
        <mxCell id="0" />
        <mxCell id="1" parent="0" />
        <mxCell id="MajDjDsh7x96EsrQRY2l-2" value="&lt;u&gt;MSNV&lt;/u&gt;" style="html=1;" parent="1" vertex="1">
          <mxGeometry x="-547" y="-440" width="110" height="50" as="geometry" />
        </mxCell>
        <mxCell id="MajDjDsh7x96EsrQRY2l-3" value="HỌ&amp;nbsp;" style="html=1;" parent="1" vertex="1">
          <mxGeometry x="-437" y="-440" width="110" height="50" as="geometry" />
        </mxCell>
        <mxCell id="MajDjDsh7x96EsrQRY2l-4" value="TÊN" style="html=1;" parent="1" vertex="1">
          <mxGeometry x="-327" y="-440" width="110" height="50" as="geometry" />
        </mxCell>
        <mxCell id="MajDjDsh7x96EsrQRY2l-5" value="ĐỊA CHỈ" style="html=1;" parent="1" vertex="1">
          <mxGeometry x="-217" y="-440" width="110" height="50" as="geometry" />
        </mxCell>
        <mxCell id="MajDjDsh7x96EsrQRY2l-6" value="NGÀY SINH" style="html=1;" parent="1" vertex="1">
          <mxGeometry x="-107" y="-440" width="110" height="50" as="geometry" />
        </mxCell>
        <mxCell id="MajDjDsh7x96EsrQRY2l-7" value="GIỚI TÍNH" style="html=1;" parent="1" vertex="1">
          <mxGeometry x="3" y="-440" width="110" height="50" as="geometry" />
        </mxCell>
        <mxCell id="MajDjDsh7x96EsrQRY2l-9" value="NHÂN VIÊN" style="text;html=1;strokeColor=none;fillColor=none;align=center;verticalAlign=middle;whiteSpace=wrap;rounded=0;" parent="1" vertex="1">
          <mxGeometry x="-657" y="-460" width="70" height="20" as="geometry" />
        </mxCell>
        <mxCell id="MajDjDsh7x96EsrQRY2l-10" value="&lt;u&gt;MSNV&lt;/u&gt;" style="html=1;" parent="1" vertex="1">
          <mxGeometry x="-303" y="-540" width="110" height="50" as="geometry" />
        </mxCell>
        <mxCell id="MajDjDsh7x96EsrQRY2l-11" value="SĐT" style="html=1;" parent="1" vertex="1">
          <mxGeometry x="-193" y="-540" width="110" height="50" as="geometry" />
        </mxCell>
        <mxCell id="MajDjDsh7x96EsrQRY2l-12" value="SỐ ĐT NHÂN VIÊN" style="text;html=1;strokeColor=none;fillColor=none;align=center;verticalAlign=middle;whiteSpace=wrap;rounded=0;" parent="1" vertex="1">
          <mxGeometry x="-303" y="-560" width="120" height="20" as="geometry" />
        </mxCell>
        <mxCell id="MajDjDsh7x96EsrQRY2l-14" value="" style="curved=1;endArrow=classic;html=1;entryX=0.75;entryY=0;entryDx=0;entryDy=0;exitX=0;exitY=0.5;exitDx=0;exitDy=0;" parent="1" source="MajDjDsh7x96EsrQRY2l-10" target="MajDjDsh7x96EsrQRY2l-2" edge="1">
          <mxGeometry width="50" height="50" relative="1" as="geometry">
            <mxPoint x="-237" y="-240" as="sourcePoint" />
            <mxPoint x="-157" y="-340" as="targetPoint" />
            <Array as="points">
              <mxPoint x="-407" y="-520" />
            </Array>
          </mxGeometry>
        </mxCell>
        <mxCell id="MajDjDsh7x96EsrQRY2l-15" value="&lt;u&gt;MÃ PHÒNG BAN&lt;/u&gt;" style="html=1;" parent="1" vertex="1">
          <mxGeometry x="-547" y="-280" width="110" height="50" as="geometry" />
        </mxCell>
        <mxCell id="MajDjDsh7x96EsrQRY2l-16" value="TÊN PHÒNG" style="html=1;" parent="1" vertex="1">
          <mxGeometry x="-437" y="-280" width="110" height="50" as="geometry" />
        </mxCell>
        <mxCell id="MajDjDsh7x96EsrQRY2l-17" value="PHÒNG BAN" style="text;html=1;strokeColor=none;fillColor=none;align=center;verticalAlign=middle;whiteSpace=wrap;rounded=0;" parent="1" vertex="1">
          <mxGeometry x="-547" y="-300" width="80" height="20" as="geometry" />
        </mxCell>
        <mxCell id="MajDjDsh7x96EsrQRY2l-18" value="MÃ PHÒNG BAN" style="html=1;" parent="1" vertex="1">
          <mxGeometry x="-657" y="-440" width="110" height="50" as="geometry" />
        </mxCell>
        <mxCell id="MajDjDsh7x96EsrQRY2l-19" value="" style="curved=1;endArrow=classic;html=1;entryX=0;entryY=0.5;entryDx=0;entryDy=0;exitX=0.5;exitY=1;exitDx=0;exitDy=0;" parent="1" source="MajDjDsh7x96EsrQRY2l-18" target="MajDjDsh7x96EsrQRY2l-15" edge="1">
          <mxGeometry width="50" height="50" relative="1" as="geometry">
            <mxPoint x="-357" y="-370" as="sourcePoint" />
            <mxPoint x="-307" y="-420" as="targetPoint" />
            <Array as="points">
              <mxPoint x="-637" y="-340" />
              <mxPoint x="-637" y="-300" />
              <mxPoint x="-607" y="-270" />
            </Array>
          </mxGeometry>
        </mxCell>
        <mxCell id="MajDjDsh7x96EsrQRY2l-20" value="&lt;u&gt;SỐ QUYẾT ĐỊNH&lt;/u&gt;" style="html=1;" parent="1" vertex="1">
          <mxGeometry x="-657" y="-170" width="110" height="50" as="geometry" />
        </mxCell>
        <mxCell id="MajDjDsh7x96EsrQRY2l-21" value="NGÀY KÝ &lt;br&gt;QUYẾT ĐỊNH" style="html=1;" parent="1" vertex="1">
          <mxGeometry x="-547" y="-170" width="110" height="50" as="geometry" />
        </mxCell>
        <mxCell id="MajDjDsh7x96EsrQRY2l-22" value="NGÀY CHUYỂN" style="html=1;" parent="1" vertex="1">
          <mxGeometry x="-437" y="-170" width="110" height="50" as="geometry" />
        </mxCell>
        <mxCell id="MajDjDsh7x96EsrQRY2l-23" value="QUYẾT ĐỊNH CHUYỂN PHÒNG BAN" style="text;html=1;strokeColor=none;fillColor=none;align=center;verticalAlign=middle;whiteSpace=wrap;rounded=0;" parent="1" vertex="1">
          <mxGeometry x="-657" y="-190" width="220" height="20" as="geometry" />
        </mxCell>
        <mxCell id="MajDjDsh7x96EsrQRY2l-24" value="MSNV" style="html=1;" parent="1" vertex="1">
          <mxGeometry x="-327" y="-170" width="110" height="50" as="geometry" />
        </mxCell>
        <mxCell id="MajDjDsh7x96EsrQRY2l-25" value="" style="curved=1;endArrow=classic;html=1;entryX=0.5;entryY=1;entryDx=0;entryDy=0;exitX=0.5;exitY=0;exitDx=0;exitDy=0;" parent="1" source="MajDjDsh7x96EsrQRY2l-24" target="MajDjDsh7x96EsrQRY2l-2" edge="1">
          <mxGeometry width="50" height="50" relative="1" as="geometry">
            <mxPoint x="-357" y="-280" as="sourcePoint" />
            <mxPoint x="-307" y="-330" as="targetPoint" />
            <Array as="points">
              <mxPoint x="-237" y="-320" />
              <mxPoint x="-377" y="-310" />
            </Array>
          </mxGeometry>
        </mxCell>
        <mxCell id="MajDjDsh7x96EsrQRY2l-26" value="MÃ PHÒNG BAN" style="html=1;" parent="1" vertex="1">
          <mxGeometry x="-217" y="-170" width="110" height="50" as="geometry" />
        </mxCell>
        <mxCell id="MajDjDsh7x96EsrQRY2l-27" value="" style="curved=1;endArrow=classic;html=1;entryX=0;entryY=0.75;entryDx=0;entryDy=0;exitX=0.5;exitY=1;exitDx=0;exitDy=0;" parent="1" source="MajDjDsh7x96EsrQRY2l-26" target="MajDjDsh7x96EsrQRY2l-15" edge="1">
          <mxGeometry width="50" height="50" relative="1" as="geometry">
            <mxPoint x="-237" y="-40" as="sourcePoint" />
            <mxPoint x="-307" y="-230" as="targetPoint" />
            <Array as="points">
              <mxPoint x="-357" y="-10" />
              <mxPoint x="-827" y="-120" />
              <mxPoint x="-637" y="-242" />
            </Array>
          </mxGeometry>
        </mxCell>
        <mxCell id="KyPbRzyOr3z3Ptm92nIl-2" value="LÀM VIỆC" style="text;html=1;strokeColor=none;fillColor=none;align=center;verticalAlign=middle;whiteSpace=wrap;rounded=0;" parent="1" vertex="1">
          <mxGeometry x="-707" y="-330" width="70" height="20" as="geometry" />
        </mxCell>
        <mxCell id="KyPbRzyOr3z3Ptm92nIl-3" value="QUYẾT ĐỊNH" style="text;html=1;strokeColor=none;fillColor=none;align=center;verticalAlign=middle;whiteSpace=wrap;rounded=0;" parent="1" vertex="1">
          <mxGeometry x="-287" y="-320" width="100" height="20" as="geometry" />
        </mxCell>
        <mxCell id="KyPbRzyOr3z3Ptm92nIl-4" value="QUYẾT ĐỊNH" style="text;html=1;strokeColor=none;fillColor=none;align=center;verticalAlign=middle;whiteSpace=wrap;rounded=0;" parent="1" vertex="1">
          <mxGeometry x="-497" y="-40" width="100" height="20" as="geometry" />
        </mxCell>
        <mxCell id="KyPbRzyOr3z3Ptm92nIl-5" value="NHÂN VIÊN" style="html=1;" parent="1" vertex="1">
          <mxGeometry x="55" y="-980" width="110" height="50" as="geometry" />
        </mxCell>
        <mxCell id="KyPbRzyOr3z3Ptm92nIl-6" value="&lt;u&gt;MSNV&lt;/u&gt;" style="ellipse;whiteSpace=wrap;html=1;" parent="1" vertex="1">
          <mxGeometry x="-180" y="-1020" width="120" height="70" as="geometry" />
        </mxCell>
        <mxCell id="KyPbRzyOr3z3Ptm92nIl-25" style="edgeStyle=orthogonalEdgeStyle;rounded=0;orthogonalLoop=1;jettySize=auto;html=1;exitX=0.5;exitY=1;exitDx=0;exitDy=0;" parent="1" source="KyPbRzyOr3z3Ptm92nIl-7" edge="1">
          <mxGeometry relative="1" as="geometry">
            <mxPoint x="-10" y="-1030.0000000000002" as="targetPoint" />
          </mxGeometry>
        </mxCell>
        <mxCell id="KyPbRzyOr3z3Ptm92nIl-7" value="HỌ TÊN" style="ellipse;whiteSpace=wrap;html=1;" parent="1" vertex="1">
          <mxGeometry x="-80" y="-1090" width="120" height="70" as="geometry" />
        </mxCell>
        <mxCell id="KyPbRzyOr3z3Ptm92nIl-8" value="HỌ TÊN" style="ellipse;whiteSpace=wrap;html=1;" parent="1" vertex="1">
          <mxGeometry x="-190" y="-1160" width="120" height="70" as="geometry" />
        </mxCell>
        <mxCell id="KyPbRzyOr3z3Ptm92nIl-9" value="HỌ TÊN" style="ellipse;whiteSpace=wrap;html=1;" parent="1" vertex="1">
          <mxGeometry x="20" y="-1160" width="120" height="70" as="geometry" />
        </mxCell>
        <mxCell id="KyPbRzyOr3z3Ptm92nIl-10" value="" style="endArrow=none;html=1;entryX=1;entryY=1;entryDx=0;entryDy=0;" parent="1" source="KyPbRzyOr3z3Ptm92nIl-7" target="KyPbRzyOr3z3Ptm92nIl-8" edge="1">
          <mxGeometry width="50" height="50" relative="1" as="geometry">
            <mxPoint x="110" y="-980" as="sourcePoint" />
            <mxPoint x="160" y="-1030" as="targetPoint" />
          </mxGeometry>
        </mxCell>
        <mxCell id="KyPbRzyOr3z3Ptm92nIl-11" value="" style="endArrow=none;html=1;entryX=0;entryY=1;entryDx=0;entryDy=0;" parent="1" source="KyPbRzyOr3z3Ptm92nIl-7" target="KyPbRzyOr3z3Ptm92nIl-9" edge="1">
          <mxGeometry width="50" height="50" relative="1" as="geometry">
            <mxPoint x="110" y="-980" as="sourcePoint" />
            <mxPoint x="160" y="-1030" as="targetPoint" />
          </mxGeometry>
        </mxCell>
        <mxCell id="KyPbRzyOr3z3Ptm92nIl-13" value="ĐỊA CHỈ" style="ellipse;whiteSpace=wrap;html=1;" parent="1" vertex="1">
          <mxGeometry x="50" y="-1090" width="120" height="70" as="geometry" />
        </mxCell>
        <mxCell id="KyPbRzyOr3z3Ptm92nIl-14" value="GIỚI TÍNH" style="ellipse;whiteSpace=wrap;html=1;" parent="1" vertex="1">
          <mxGeometry x="250" y="-1030" width="120" height="70" as="geometry" />
        </mxCell>
        <mxCell id="KyPbRzyOr3z3Ptm92nIl-15" value="NGÀY SINH" style="ellipse;whiteSpace=wrap;html=1;" parent="1" vertex="1">
          <mxGeometry x="190" y="-1150" width="120" height="70" as="geometry" />
        </mxCell>
        <mxCell id="KyPbRzyOr3z3Ptm92nIl-17" value="SĐT" style="ellipse;whiteSpace=wrap;html=1;" parent="1" vertex="1">
          <mxGeometry x="320" y="-1110" width="120" height="70" as="geometry" />
        </mxCell>
        <mxCell id="KyPbRzyOr3z3Ptm92nIl-19" value="" style="ellipse;whiteSpace=wrap;html=1;fillColor=none;" parent="1" vertex="1">
          <mxGeometry x="310" y="-1120" width="140" height="90" as="geometry" />
        </mxCell>
        <mxCell id="KyPbRzyOr3z3Ptm92nIl-20" value="" style="endArrow=none;html=1;entryX=0.5;entryY=1;entryDx=0;entryDy=0;exitX=0.5;exitY=0;exitDx=0;exitDy=0;" parent="1" source="KyPbRzyOr3z3Ptm92nIl-5" target="KyPbRzyOr3z3Ptm92nIl-13" edge="1">
          <mxGeometry width="50" height="50" relative="1" as="geometry">
            <mxPoint x="110" y="-980" as="sourcePoint" />
            <mxPoint x="160" y="-1030" as="targetPoint" />
          </mxGeometry>
        </mxCell>
        <mxCell id="KyPbRzyOr3z3Ptm92nIl-21" value="" style="endArrow=none;html=1;entryX=1.011;entryY=0.649;entryDx=0;entryDy=0;entryPerimeter=0;" parent="1" source="KyPbRzyOr3z3Ptm92nIl-5" target="KyPbRzyOr3z3Ptm92nIl-6" edge="1">
          <mxGeometry width="50" height="50" relative="1" as="geometry">
            <mxPoint x="110" y="-980" as="sourcePoint" />
            <mxPoint x="160" y="-1030" as="targetPoint" />
          </mxGeometry>
        </mxCell>
        <mxCell id="KyPbRzyOr3z3Ptm92nIl-22" value="" style="endArrow=none;html=1;entryX=0;entryY=1;entryDx=0;entryDy=0;exitX=0.659;exitY=-0.033;exitDx=0;exitDy=0;exitPerimeter=0;" parent="1" source="KyPbRzyOr3z3Ptm92nIl-5" target="KyPbRzyOr3z3Ptm92nIl-15" edge="1">
          <mxGeometry width="50" height="50" relative="1" as="geometry">
            <mxPoint x="110" y="-980" as="sourcePoint" />
            <mxPoint x="160" y="-1030" as="targetPoint" />
          </mxGeometry>
        </mxCell>
        <mxCell id="KyPbRzyOr3z3Ptm92nIl-23" value="" style="endArrow=none;html=1;entryX=0.065;entryY=0.75;entryDx=0;entryDy=0;entryPerimeter=0;exitX=1;exitY=0.5;exitDx=0;exitDy=0;" parent="1" source="KyPbRzyOr3z3Ptm92nIl-5" target="KyPbRzyOr3z3Ptm92nIl-14" edge="1">
          <mxGeometry width="50" height="50" relative="1" as="geometry">
            <mxPoint x="110" y="-980" as="sourcePoint" />
            <mxPoint x="160" y="-1030" as="targetPoint" />
          </mxGeometry>
        </mxCell>
        <mxCell id="KyPbRzyOr3z3Ptm92nIl-24" value="" style="endArrow=none;html=1;entryX=0.5;entryY=1;entryDx=0;entryDy=0;" parent="1" source="KyPbRzyOr3z3Ptm92nIl-5" target="KyPbRzyOr3z3Ptm92nIl-7" edge="1">
          <mxGeometry width="50" height="50" relative="1" as="geometry">
            <mxPoint x="110" y="-980" as="sourcePoint" />
            <mxPoint x="160" y="-1030" as="targetPoint" />
          </mxGeometry>
        </mxCell>
        <mxCell id="KyPbRzyOr3z3Ptm92nIl-26" value="" style="endArrow=none;html=1;entryX=0;entryY=0.5;entryDx=0;entryDy=0;exitX=0.841;exitY=-0.033;exitDx=0;exitDy=0;exitPerimeter=0;" parent="1" source="KyPbRzyOr3z3Ptm92nIl-5" target="KyPbRzyOr3z3Ptm92nIl-19" edge="1">
          <mxGeometry width="50" height="50" relative="1" as="geometry">
            <mxPoint x="110" y="-980" as="sourcePoint" />
            <mxPoint x="160" y="-1030" as="targetPoint" />
          </mxGeometry>
        </mxCell>
        <mxCell id="KyPbRzyOr3z3Ptm92nIl-27" value="LÀM VIỆC" style="rhombus;whiteSpace=wrap;html=1;fillColor=none;" parent="1" vertex="1">
          <mxGeometry x="46" y="-865" width="130" height="70" as="geometry" />
        </mxCell>
        <mxCell id="KyPbRzyOr3z3Ptm92nIl-28" value="" style="shape=link;html=1;entryX=0.5;entryY=1;entryDx=0;entryDy=0;exitX=0.5;exitY=0;exitDx=0;exitDy=0;" parent="1" source="KyPbRzyOr3z3Ptm92nIl-27" target="KyPbRzyOr3z3Ptm92nIl-5" edge="1">
          <mxGeometry width="100" relative="1" as="geometry">
            <mxPoint x="80" y="-650" as="sourcePoint" />
            <mxPoint x="180" y="-650" as="targetPoint" />
          </mxGeometry>
        </mxCell>
        <mxCell id="KyPbRzyOr3z3Ptm92nIl-29" value="PHÒNG BAN" style="html=1;fillColor=none;" parent="1" vertex="1">
          <mxGeometry x="56" y="-740" width="110" height="50" as="geometry" />
        </mxCell>
        <mxCell id="KyPbRzyOr3z3Ptm92nIl-30" value="" style="endArrow=none;html=1;entryX=0.5;entryY=1;entryDx=0;entryDy=0;exitX=0.5;exitY=0;exitDx=0;exitDy=0;" parent="1" source="KyPbRzyOr3z3Ptm92nIl-29" target="KyPbRzyOr3z3Ptm92nIl-27" edge="1">
          <mxGeometry width="50" height="50" relative="1" as="geometry">
            <mxPoint x="110" y="-630" as="sourcePoint" />
            <mxPoint x="160" y="-680" as="targetPoint" />
          </mxGeometry>
        </mxCell>
        <mxCell id="KyPbRzyOr3z3Ptm92nIl-31" value="&lt;u&gt;MÃ PHÒNG&lt;/u&gt;" style="ellipse;whiteSpace=wrap;html=1;fillColor=none;" parent="1" vertex="1">
          <mxGeometry x="-24" y="-640" width="100" height="50" as="geometry" />
        </mxCell>
        <mxCell id="KyPbRzyOr3z3Ptm92nIl-34" value="TÊN PHÒNG BAN" style="ellipse;whiteSpace=wrap;html=1;fillColor=none;" parent="1" vertex="1">
          <mxGeometry x="126" y="-640" width="100" height="50" as="geometry" />
        </mxCell>
        <mxCell id="KyPbRzyOr3z3Ptm92nIl-35" value="" style="endArrow=none;html=1;" parent="1" edge="1">
          <mxGeometry width="50" height="50" relative="1" as="geometry">
            <mxPoint x="36" y="-640" as="sourcePoint" />
            <mxPoint x="86" y="-690" as="targetPoint" />
          </mxGeometry>
        </mxCell>
        <mxCell id="KyPbRzyOr3z3Ptm92nIl-36" value="" style="endArrow=none;html=1;entryX=0.659;entryY=1.026;entryDx=0;entryDy=0;entryPerimeter=0;exitX=0.308;exitY=0.038;exitDx=0;exitDy=0;exitPerimeter=0;" parent="1" source="KyPbRzyOr3z3Ptm92nIl-34" target="KyPbRzyOr3z3Ptm92nIl-29" edge="1">
          <mxGeometry width="50" height="50" relative="1" as="geometry">
            <mxPoint x="136" y="-720" as="sourcePoint" />
            <mxPoint x="186" y="-770" as="targetPoint" />
          </mxGeometry>
        </mxCell>
        <mxCell id="KyPbRzyOr3z3Ptm92nIl-37" value="N" style="text;html=1;strokeColor=none;fillColor=none;align=center;verticalAlign=middle;whiteSpace=wrap;rounded=0;" parent="1" vertex="1">
          <mxGeometry x="116" y="-885" width="40" height="20" as="geometry" />
        </mxCell>
        <mxCell id="KyPbRzyOr3z3Ptm92nIl-38" value="1" style="text;html=1;strokeColor=none;fillColor=none;align=center;verticalAlign=middle;whiteSpace=wrap;rounded=0;" parent="1" vertex="1">
          <mxGeometry x="116" y="-795" width="40" height="20" as="geometry" />
        </mxCell>
        <mxCell id="KyPbRzyOr3z3Ptm92nIl-39" value="QUYẾT ĐỊNH&lt;br&gt;CHUYỂN PHÒNG" style="html=1;fillColor=none;" parent="1" vertex="1">
          <mxGeometry x="479" y="-850" width="110" height="50" as="geometry" />
        </mxCell>
        <mxCell id="KyPbRzyOr3z3Ptm92nIl-40" value="&lt;u&gt;SỐ QUYẾT ĐỊNH&lt;/u&gt;" style="ellipse;whiteSpace=wrap;html=1;fillColor=none;" parent="1" vertex="1">
          <mxGeometry x="644" y="-920" width="112" height="60" as="geometry" />
        </mxCell>
        <mxCell id="KyPbRzyOr3z3Ptm92nIl-41" value="NGÀY KÝ QUYẾT ĐỊNH" style="ellipse;whiteSpace=wrap;html=1;fillColor=none;" parent="1" vertex="1">
          <mxGeometry x="644" y="-850" width="112" height="60" as="geometry" />
        </mxCell>
        <mxCell id="KyPbRzyOr3z3Ptm92nIl-42" value="NGÀY CHUYỂN ĐÊN PHÒNG MỚI" style="ellipse;whiteSpace=wrap;html=1;fillColor=none;" parent="1" vertex="1">
          <mxGeometry x="644" y="-780" width="112" height="60" as="geometry" />
        </mxCell>
        <mxCell id="KyPbRzyOr3z3Ptm92nIl-43" value="" style="endArrow=none;html=1;entryX=0.008;entryY=0.698;entryDx=0;entryDy=0;entryPerimeter=0;" parent="1" target="KyPbRzyOr3z3Ptm92nIl-40" edge="1">
          <mxGeometry width="50" height="50" relative="1" as="geometry">
            <mxPoint x="590" y="-840" as="sourcePoint" />
            <mxPoint x="470" y="-780" as="targetPoint" />
          </mxGeometry>
        </mxCell>
        <mxCell id="KyPbRzyOr3z3Ptm92nIl-44" value="" style="endArrow=none;html=1;entryX=0;entryY=0.5;entryDx=0;entryDy=0;exitX=1;exitY=0.5;exitDx=0;exitDy=0;" parent="1" source="KyPbRzyOr3z3Ptm92nIl-39" target="KyPbRzyOr3z3Ptm92nIl-41" edge="1">
          <mxGeometry width="50" height="50" relative="1" as="geometry">
            <mxPoint x="420" y="-730" as="sourcePoint" />
            <mxPoint x="470" y="-780" as="targetPoint" />
          </mxGeometry>
        </mxCell>
        <mxCell id="KyPbRzyOr3z3Ptm92nIl-45" value="" style="endArrow=none;html=1;entryX=1;entryY=0.75;entryDx=0;entryDy=0;exitX=0;exitY=0;exitDx=0;exitDy=0;" parent="1" source="KyPbRzyOr3z3Ptm92nIl-42" target="KyPbRzyOr3z3Ptm92nIl-39" edge="1">
          <mxGeometry width="50" height="50" relative="1" as="geometry">
            <mxPoint x="420" y="-730" as="sourcePoint" />
            <mxPoint x="470" y="-780" as="targetPoint" />
          </mxGeometry>
        </mxCell>
        <mxCell id="KyPbRzyOr3z3Ptm92nIl-48" value="QUYẾT ĐỊNH" style="rhombus;whiteSpace=wrap;html=1;fillColor=none;" parent="1" vertex="1">
          <mxGeometry x="290" y="-930" width="130" height="70" as="geometry" />
        </mxCell>
        <mxCell id="KyPbRzyOr3z3Ptm92nIl-49" value="QUYẾT ĐỊNH" style="rhombus;whiteSpace=wrap;html=1;fillColor=none;" parent="1" vertex="1">
          <mxGeometry x="290" y="-781" width="130" height="70" as="geometry" />
        </mxCell>
        <mxCell id="KyPbRzyOr3z3Ptm92nIl-50" value="" style="shape=link;html=1;entryX=0;entryY=0;entryDx=0;entryDy=0;exitX=1;exitY=1;exitDx=0;exitDy=0;" parent="1" source="KyPbRzyOr3z3Ptm92nIl-48" target="KyPbRzyOr3z3Ptm92nIl-39" edge="1">
          <mxGeometry width="100" relative="1" as="geometry">
            <mxPoint x="390" y="-760" as="sourcePoint" />
            <mxPoint x="490" y="-760" as="targetPoint" />
          </mxGeometry>
        </mxCell>
        <mxCell id="KyPbRzyOr3z3Ptm92nIl-51" value="" style="shape=link;html=1;entryX=0;entryY=1;entryDx=0;entryDy=0;exitX=1;exitY=0;exitDx=0;exitDy=0;" parent="1" source="KyPbRzyOr3z3Ptm92nIl-49" target="KyPbRzyOr3z3Ptm92nIl-39" edge="1">
          <mxGeometry width="100" relative="1" as="geometry">
            <mxPoint x="390" y="-760" as="sourcePoint" />
            <mxPoint x="490" y="-760" as="targetPoint" />
          </mxGeometry>
        </mxCell>
        <mxCell id="KyPbRzyOr3z3Ptm92nIl-52" value="" style="endArrow=none;html=1;entryX=1;entryY=0.75;entryDx=0;entryDy=0;exitX=0;exitY=0;exitDx=0;exitDy=0;" parent="1" source="KyPbRzyOr3z3Ptm92nIl-48" target="KyPbRzyOr3z3Ptm92nIl-5" edge="1">
          <mxGeometry width="50" height="50" relative="1" as="geometry">
            <mxPoint x="380" y="-650" as="sourcePoint" />
            <mxPoint x="430" y="-700" as="targetPoint" />
          </mxGeometry>
        </mxCell>
        <mxCell id="KyPbRzyOr3z3Ptm92nIl-53" value="" style="endArrow=none;html=1;entryX=1;entryY=0.75;entryDx=0;entryDy=0;exitX=0;exitY=1;exitDx=0;exitDy=0;" parent="1" source="KyPbRzyOr3z3Ptm92nIl-49" target="KyPbRzyOr3z3Ptm92nIl-29" edge="1">
          <mxGeometry width="50" height="50" relative="1" as="geometry">
            <mxPoint x="380" y="-650" as="sourcePoint" />
            <mxPoint x="430" y="-700" as="targetPoint" />
          </mxGeometry>
        </mxCell>
        <mxCell id="KyPbRzyOr3z3Ptm92nIl-54" value="1" style="text;html=1;strokeColor=none;fillColor=none;align=center;verticalAlign=middle;whiteSpace=wrap;rounded=0;" parent="1" vertex="1">
          <mxGeometry x="250" y="-920" width="40" height="20" as="geometry" />
        </mxCell>
        <mxCell id="KyPbRzyOr3z3Ptm92nIl-55" value="1" style="text;html=1;strokeColor=none;fillColor=none;align=center;verticalAlign=middle;whiteSpace=wrap;rounded=0;" parent="1" vertex="1">
          <mxGeometry x="290" y="-711" width="40" height="20" as="geometry" />
        </mxCell>
        <mxCell id="KyPbRzyOr3z3Ptm92nIl-56" value="N" style="text;html=1;strokeColor=none;fillColor=none;align=center;verticalAlign=middle;whiteSpace=wrap;rounded=0;" parent="1" vertex="1">
          <mxGeometry x="410" y="-770" width="40" height="20" as="geometry" />
        </mxCell>
        <mxCell id="KyPbRzyOr3z3Ptm92nIl-57" value="N" style="text;html=1;strokeColor=none;fillColor=none;align=center;verticalAlign=middle;whiteSpace=wrap;rounded=0;" parent="1" vertex="1">
          <mxGeometry x="360" y="-870" width="40" height="20" as="geometry" />
        </mxCell>
        <mxCell id="xlZfkF_mEiO6xxwyYn34-2" value="&lt;font style=&quot;font-size: 24px&quot;&gt;Bài 1&lt;/font&gt;" style="text;html=1;strokeColor=none;fillColor=none;align=center;verticalAlign=middle;whiteSpace=wrap;rounded=0;" vertex="1" parent="1">
          <mxGeometry x="-730" y="-1080" width="76" height="20" as="geometry" />
        </mxCell>
      </root>
    </mxGraphModel>
  </diagram>
  <diagram id="LEnZB4O8KX8tJV6zhaI6" name="Page-2">
    <mxGraphModel dx="828" dy="462" grid="1" gridSize="10" guides="1" tooltips="1" connect="1" arrows="1" fold="1" page="1" pageScale="1" pageWidth="827" pageHeight="1169" math="0" shadow="0">
      <root>
        <mxCell id="3TjyV_XL3ErwvUSG1lHw-0" />
        <mxCell id="3TjyV_XL3ErwvUSG1lHw-1" parent="3TjyV_XL3ErwvUSG1lHw-0" />
        <mxCell id="gTOIeNDKbfuQdAeyHsh--0" value="&lt;u&gt;MSDA&lt;/u&gt;" style="html=1;" vertex="1" parent="3TjyV_XL3ErwvUSG1lHw-1">
          <mxGeometry x="40" y="200" width="110" height="50" as="geometry" />
        </mxCell>
        <mxCell id="gTOIeNDKbfuQdAeyHsh--1" value="TÊN DỰ ÁN" style="html=1;" vertex="1" parent="3TjyV_XL3ErwvUSG1lHw-1">
          <mxGeometry x="150" y="200" width="110" height="50" as="geometry" />
        </mxCell>
        <mxCell id="gTOIeNDKbfuQdAeyHsh--2" value="NGÀY BẮT ĐẦU" style="html=1;" vertex="1" parent="3TjyV_XL3ErwvUSG1lHw-1">
          <mxGeometry x="260" y="200" width="110" height="50" as="geometry" />
        </mxCell>
        <mxCell id="gTOIeNDKbfuQdAeyHsh--3" value="NGÀY KẾT THÚC" style="html=1;" vertex="1" parent="3TjyV_XL3ErwvUSG1lHw-1">
          <mxGeometry x="370" y="200" width="110" height="50" as="geometry" />
        </mxCell>
        <mxCell id="gTOIeNDKbfuQdAeyHsh--4" value="GIÁ TRỊ DỰ ÁN" style="html=1;" vertex="1" parent="3TjyV_XL3ErwvUSG1lHw-1">
          <mxGeometry x="480" y="200" width="110" height="50" as="geometry" />
        </mxCell>
        <mxCell id="gTOIeNDKbfuQdAeyHsh--5" value="DỰ ÁN" style="text;html=1;strokeColor=none;fillColor=none;align=center;verticalAlign=middle;whiteSpace=wrap;rounded=0;" vertex="1" parent="3TjyV_XL3ErwvUSG1lHw-1">
          <mxGeometry x="40" y="180" width="60" height="20" as="geometry" />
        </mxCell>
        <mxCell id="gTOIeNDKbfuQdAeyHsh--6" value="THAM GIA" style="text;html=1;strokeColor=none;fillColor=none;align=center;verticalAlign=middle;whiteSpace=wrap;rounded=0;" vertex="1" parent="3TjyV_XL3ErwvUSG1lHw-1">
          <mxGeometry x="40" y="320" width="80" height="20" as="geometry" />
        </mxCell>
        <mxCell id="gTOIeNDKbfuQdAeyHsh--7" value="&lt;u&gt;MSDA&lt;/u&gt;" style="html=1;" vertex="1" parent="3TjyV_XL3ErwvUSG1lHw-1">
          <mxGeometry x="40" y="340" width="110" height="50" as="geometry" />
        </mxCell>
        <mxCell id="gTOIeNDKbfuQdAeyHsh--8" value="&lt;u&gt;MSNV&lt;/u&gt;" style="html=1;" vertex="1" parent="3TjyV_XL3ErwvUSG1lHw-1">
          <mxGeometry x="150" y="340" width="110" height="50" as="geometry" />
        </mxCell>
        <mxCell id="gTOIeNDKbfuQdAeyHsh--9" value="SỐ GIỜ LÀM" style="html=1;" vertex="1" parent="3TjyV_XL3ErwvUSG1lHw-1">
          <mxGeometry x="260" y="340" width="110" height="50" as="geometry" />
        </mxCell>
        <mxCell id="gTOIeNDKbfuQdAeyHsh--10" value="&lt;u&gt;MSVN&lt;/u&gt;" style="html=1;" vertex="1" parent="3TjyV_XL3ErwvUSG1lHw-1">
          <mxGeometry x="40" y="480" width="110" height="50" as="geometry" />
        </mxCell>
        <mxCell id="gTOIeNDKbfuQdAeyHsh--11" value="HỌ TÊN" style="html=1;" vertex="1" parent="3TjyV_XL3ErwvUSG1lHw-1">
          <mxGeometry x="150" y="480" width="110" height="50" as="geometry" />
        </mxCell>
        <mxCell id="gTOIeNDKbfuQdAeyHsh--12" value="NGÀY SINH" style="html=1;" vertex="1" parent="3TjyV_XL3ErwvUSG1lHw-1">
          <mxGeometry x="260" y="480" width="110" height="50" as="geometry" />
        </mxCell>
        <mxCell id="gTOIeNDKbfuQdAeyHsh--13" value="NGÀY VÀO LÀM" style="html=1;" vertex="1" parent="3TjyV_XL3ErwvUSG1lHw-1">
          <mxGeometry x="370" y="480" width="110" height="50" as="geometry" />
        </mxCell>
        <mxCell id="gTOIeNDKbfuQdAeyHsh--14" value="" style="curved=1;endArrow=classic;html=1;entryX=0.5;entryY=1;entryDx=0;entryDy=0;exitX=0.75;exitY=0;exitDx=0;exitDy=0;" edge="1" parent="3TjyV_XL3ErwvUSG1lHw-1" source="gTOIeNDKbfuQdAeyHsh--7" target="gTOIeNDKbfuQdAeyHsh--0">
          <mxGeometry width="50" height="50" relative="1" as="geometry">
            <mxPoint x="310" y="460" as="sourcePoint" />
            <mxPoint x="360" y="410" as="targetPoint" />
            <Array as="points">
              <mxPoint x="180" y="290" />
            </Array>
          </mxGeometry>
        </mxCell>
        <mxCell id="gTOIeNDKbfuQdAeyHsh--15" value="" style="curved=1;endArrow=classic;html=1;entryX=0.5;entryY=0;entryDx=0;entryDy=0;exitX=0.5;exitY=1;exitDx=0;exitDy=0;" edge="1" parent="3TjyV_XL3ErwvUSG1lHw-1" source="gTOIeNDKbfuQdAeyHsh--8" target="gTOIeNDKbfuQdAeyHsh--10">
          <mxGeometry width="50" height="50" relative="1" as="geometry">
            <mxPoint x="310" y="460" as="sourcePoint" />
            <mxPoint x="360" y="410" as="targetPoint" />
            <Array as="points">
              <mxPoint x="160" y="440" />
            </Array>
          </mxGeometry>
        </mxCell>
      </root>
    </mxGraphModel>
  </diagram>
</mxfile>
